<svg width="567" height="526" viewBox="0 0 567 526" fill="none" xmlns="http://www.w3.org/2000/svg">
<circle cx="306" cy="263" r="261" fill="#FFF4EE"/>
<path d="M149.5 1C60.5457 54.2815 1 151.608 1 262.842C1 374.076 60.5457 471.402 149.5 524.683" stroke="black" stroke-opacity="0.1"/>
<mask id="mask0_1_181" style="mask-type:alpha" maskUnits="userSpaceOnUse" x="45" y="2" width="522" height="522">
<circle cx="306" cy="263" r="261" fill="#FFF4EE"/>
</mask>
<g mask="url(#mask0_1_181)">
<path d="M153.992 477.547C168.574 492.197 187.368 505.048 206.725 519.604C270.698 567.712 366.551 559.359 400.833 542.813C403.16 522.804 406.736 503.379 410.775 483.614C415.001 462.93 420.338 441.461 419.983 420.187C419.771 407.489 415.881 396.925 405.69 388.979C388.582 375.641 365.531 369.714 345.079 364.067C294.05 349.98 238.828 342.008 185.878 347.567C182.36 347.937 173.408 348.058 172.317 353.083C171.26 357.951 175.244 364.337 177.265 368.342C179.715 373.195 193.838 391.43 184.962 396.287C180.865 398.528 174.869 398.355 170.439 399.09C158.969 400.995 147.725 403.929 136.858 408.099C128.269 411.395 114.552 416.106 108.912 424.14C105.962 428.342 110.898 433.798 113.402 436.733C125.775 451.241 140.574 464.067 153.992 477.547Z" fill="#F3BA5B" stroke="black" stroke-width="2" stroke-linecap="round"/>
<path d="M161.538 604.513C159.09 625.741 215.758 615.369 224.523 634.966C270.332 610.445 317.551 588.381 362.373 562.059C425.017 525.271 489.606 480.189 530.896 419.023C538.237 408.149 556.351 379.586 532.38 376.928C506.463 374.054 480.094 382.684 455.466 389.495C453.376 390.073 446.542 392.965 445.955 388.483C445.299 383.479 448.073 376.9 449.79 372.598C455.928 357.221 465.174 343.597 473.581 329.434C477.473 322.878 482.079 315.732 483.694 308.108C485.39 300.106 480.601 304.251 477.56 306.889C473.259 310.619 468.041 312.28 462.47 310.323C453.155 307.052 447.041 297.933 437.424 294.996C419.191 289.429 398.794 305.043 388.577 318.459C371.629 340.715 363.843 368.445 349.356 392.176C345.52 398.459 338.075 411.993 328.658 410.651C323.263 409.882 323.765 399.892 317.02 398.999C304.118 397.29 287.542 409.733 278.225 416.442C259.324 430.054 242.419 446.485 227.349 464.188C194.074 503.275 167.493 552.861 161.538 604.513Z" fill="#A28FCF" stroke="black" stroke-width="2" stroke-linecap="round"/>
</g>
<path d="M126.112 231.474C138.252 232.823 120.404 250.13 117.965 253.125C115.41 256.265 109.831 262.051 110.92 266.703C112.272 272.484 122.863 271.694 127.029 271.694C130.617 271.694 135.35 270.465 138.883 271.107C139.88 271.288 137.032 271.934 136.094 272.318C131.93 274.021 127.698 275.518 123.47 277.052C119.617 278.449 109.661 280.366 108.277 285.272C107.043 289.648 115.438 291.56 118.075 292.171C122.901 293.288 139.57 293.145 132.497 301.565C129.953 304.595 126.375 307.124 125.085 311.033C123.198 316.746 128.178 319.362 132.791 321.161C138.823 323.514 145.219 324.13 151.396 325.895C155.477 327.061 152.269 328.622 150.038 329.969C147.347 331.593 142.966 333.29 141.745 336.501C140.483 339.818 145.152 341.758 147.249 343.106" stroke="black" stroke-width="2" stroke-linecap="round"/>
<path d="M384.792 88.3973C394.008 86.4198 402.798 82.5917 411.522 79.1209C415.092 77.701 424.698 72.1566 429.001 73.7533C430.314 74.2406 413.146 98.0437 412.691 101.733C411.779 109.121 438.221 98.5766 440.479 97.7441C451.458 93.6957 436.938 108.452 435.568 111.905C430.813 123.889 449.295 119.031 455.63 118.433C469.889 117.085 450.459 130.228 447.238 133.214C437.637 142.117 442.867 145.93 453.174 146.277C460.092 146.509 440.299 155.465 437.215 156.721" stroke="black" stroke-width="2" stroke-linecap="round"/>
<circle cx="488.5" cy="182.5" r="8.5" fill="#F3BA5B" stroke="black" stroke-width="2"/>
<circle cx="454.5" cy="225.5" r="4.5" fill="#F3BA5B" stroke="black" stroke-width="2"/>
<circle cx="490.5" cy="259.5" r="10.5" fill="#A28FCF" stroke="black" stroke-width="2"/>
<circle cx="273" cy="77" r="4" fill="#A28FCF" stroke="black" stroke-width="2"/>
<circle cx="220" cy="171" r="6" fill="#A28FCF" stroke="black" stroke-width="2"/>
<circle cx="232" cy="117" r="8" fill="#F3BA5B" stroke="black" stroke-width="2"/>
<circle cx="295" cy="117" r="13" fill="#F3BA5B" stroke="black" stroke-width="2"/>
</svg>
