<svg width="58" height="40" viewBox="0 0 58 40" fill="none" xmlns="http://www.w3.org/2000/svg">
<path d="M4.85055 39.6787L0.92041 30.0318H3.50996L5.20814 34.625C5.84845 36.3625 6.12 37.2962 6.28762 37.9114H6.31481C6.46567 37.3544 6.59939 36.946 7.5038 34.4498L9.14536 30.0318H11.6489L7.65056 39.6787H4.85055Z" fill="black"/>
<path d="M17.6005 35.6141C16.7031 33.403 16.2658 32.2763 16.0349 31.5392H16.0211C15.8054 32.261 15.2933 33.728 14.5684 35.6141H17.6005ZM13.9627 37.4902L13.1209 39.6797H10.7139L14.5978 30.0331H17.599L21.6818 39.6797H19.1508L18.2546 37.4902H13.9627Z" fill="black"/>
<path d="M22.9412 39.6797V30.0328H25.7125C28.4217 34.1695 29.503 35.6745 30.1076 36.8214H30.1347C30.0405 35.8086 30.0543 34.0029 30.0543 32.416V30.0328H32.1987V39.6797H29.6006C28.6917 38.2429 25.606 33.4481 25.032 32.3459H25.0048C25.0853 33.5372 25.0853 34.9084 25.0853 36.622V39.6797H22.9412Z" fill="black"/>
<path d="M34.73 30.0328H37.0685V37.8032H42.4673L42.16 39.6797H34.73V30.0328Z" fill="black"/>
<path d="M50.1975 35.6141C49.3002 33.403 48.8629 32.2763 48.6319 31.5392H48.6181C48.4025 32.261 47.8903 33.728 47.1654 35.6141H50.1975ZM46.5598 37.4902L45.7179 39.6797H43.3109L47.1949 30.0331H50.196L54.2789 39.6797H51.7478L50.8516 37.4902H46.5598Z" fill="black"/>
<path d="M29.9467 12.5329C29.9467 12.5329 40.813 1.45399 49.276 2.1858C55.6943 2.74062 56.1719 25.284 49.276 25.9111C42.3801 26.5382 19.812 9.1883 19.812 9.1883C19.812 9.1883 42.2188 20.7847 47.291 20.0581C50.6344 19.5793 50.3417 7.34574 47.3766 6.65454C44.0518 5.87988 29.9467 12.5329 29.9467 12.5329Z" fill="black"/>
<path d="M21.248 9.31285C21.248 9.95659 20.7262 10.4785 20.0825 10.4785C19.4389 10.4785 18.917 9.95659 18.917 9.31285C18.917 8.6691 19.4389 8.14718 20.0825 8.14718C20.7262 8.14718 21.248 8.6691 21.248 9.31285Z" fill="black"/>
<path d="M18.1097 6.78869C18.1097 7.61664 17.4389 8.28809 16.6108 8.28809C15.7832 8.28809 15.1123 7.61664 15.1123 6.78869C15.1123 5.96075 15.7832 5.2893 16.6108 5.2893C17.4389 5.2893 18.1097 5.96075 18.1097 6.78869Z" fill="black"/>
<path d="M8.79872 3.50532C8.79872 4.6526 7.86898 5.58301 6.72171 5.58301C5.57482 5.58301 4.64508 4.6526 4.64508 3.50532C4.64508 2.35805 5.57482 1.42764 6.72171 1.42764C7.86898 1.42764 8.79872 2.35805 8.79872 3.50532Z" fill="black"/>
<path d="M4.64501 7.77588C4.64501 8.80802 3.80877 9.64453 2.77697 9.64453C1.74518 9.64453 0.908936 8.80802 0.908936 7.77588C0.908936 6.74375 1.74518 5.90723 2.77697 5.90723C3.80877 5.90723 4.64501 6.74375 4.64501 7.77588Z" fill="black"/>
<path d="M13.8273 23.1813C13.8273 24.1799 13.0183 24.9893 12.02 24.9893C11.0218 24.9893 10.2127 24.1799 10.2127 23.1813C10.2127 22.1827 11.0218 21.3734 12.02 21.3734C13.0183 21.3734 13.8273 22.1827 13.8273 23.1813Z" fill="black"/>
<path d="M18.6063 21.249C18.6063 22.0985 17.9179 22.7871 17.0686 22.7871C16.2194 22.7871 15.531 22.0985 15.531 21.249C15.531 20.3994 16.2194 19.7108 17.0686 19.7108C17.9179 19.7108 18.6063 20.3994 18.6063 21.249Z" fill="black"/>
<path d="M22.536 18.8541C22.536 19.5322 21.9862 20.082 21.3083 20.082C20.6304 20.082 20.0806 19.5322 20.0806 18.8541C20.0806 18.1761 20.6304 17.6263 21.3083 17.6263C21.9862 17.6263 22.536 18.1761 22.536 18.8541Z" fill="black"/>
<path d="M26.0444 16.4213C26.0444 16.9965 25.578 17.4629 25.0029 17.4629C24.4278 17.4629 23.9614 16.9965 23.9614 16.4213C23.9614 15.8461 24.4278 15.3797 25.0029 15.3797C25.578 15.3797 26.0444 15.8461 26.0444 16.4213Z" fill="black"/>
<path d="M26.5456 8.58594L24.4045 3.33024H25.8151L26.7404 5.83233C27.0894 6.77914 27.2373 7.28776 27.3285 7.62311H27.3434C27.4254 7.31943 27.4984 7.09698 27.9912 5.73694L28.8855 3.33024H30.2496L28.0709 8.58594H26.5456Z" fill="black"/>
<path d="M8.22718 23.7973C8.22718 24.9446 7.29745 25.875 6.15018 25.875C5.00328 25.875 4.07355 24.9446 4.07355 23.7973C4.07355 22.65 5.00328 21.7196 6.15018 21.7196C7.29745 21.7196 8.22718 22.65 8.22718 23.7973Z" fill="black"/>
<path d="M4.07543 13.5112C4.07543 14.5434 3.23919 15.3799 2.20739 15.3799C1.1756 15.3799 0.339355 14.5434 0.339355 13.5112C0.339355 12.4791 1.1756 11.6426 2.20739 11.6426C3.23919 11.6426 4.07543 12.4791 4.07543 13.5112Z" fill="black"/>
<path d="M4.64476 19.2446C4.64476 20.2768 3.80853 21.1133 2.77673 21.1133C1.74493 21.1133 0.908691 20.2768 0.908691 19.2446C0.908691 18.2125 1.74493 17.376 2.77673 17.376C3.80853 17.376 4.64476 18.2125 4.64476 19.2446Z" fill="black"/>
<path d="M13.7636 4.53193C13.7636 5.53053 12.9545 6.33984 11.9562 6.33984C10.958 6.33984 10.1489 5.53053 10.1489 4.53193C10.1489 3.53333 10.958 2.72401 11.9562 2.72401C12.9545 2.72401 13.7636 3.53333 13.7636 4.53193Z" fill="black"/>
<path d="M53.5983 0.74979H52.9238V0.506151H54.5661V0.74979H53.8878V2.72461H53.5983V0.74979Z" fill="black"/>
<path d="M56.6803 1.74945C56.6639 1.44024 56.6442 1.06808 56.6476 0.791655H56.6375C56.5619 1.05169 56.4699 1.32811 56.3581 1.63433L55.9663 2.71059H55.7491L55.3904 1.65408C55.285 1.34152 55.1963 1.05504 55.1338 0.791655H55.1271C55.1207 1.06808 55.104 1.44024 55.0842 1.77255L55.025 2.72363H54.752L54.9065 0.505547H55.2719L55.6504 1.57845C55.7424 1.85152 55.818 2.09516 55.8743 2.32539H55.8839C55.9398 2.1015 56.0188 1.85823 56.1175 1.57845L56.5127 0.505547H56.8778L57.0159 2.72363H56.7362L56.6803 1.74945Z" fill="black"/>
</svg>
