<svg width="403" height="404" viewBox="0 0 403 404" fill="none" xmlns="http://www.w3.org/2000/svg">
<g filter="url(#filter0_b_382_91)">
<circle cx="200.431" cy="201.116" r="172.388" fill="white"/>
</g>
<path d="M201.362 0.772949C174.931 0.772949 148.758 5.97908 124.338 16.0941C99.918 26.2091 77.7296 41.0349 59.0395 59.725C40.3494 78.4151 25.5236 100.604 15.4085 125.023C5.29353 149.443 0.0874015 175.616 0.0874023 202.048C0.0874032 228.48 5.29353 254.653 15.4085 279.073C25.5236 303.492 40.3494 325.681 59.0395 344.371C77.7296 363.061 99.918 377.887 124.338 388.002C148.758 398.117 174.931 403.323 201.362 403.323L201.362 202.048L201.362 0.772949Z" fill="white"/>
<mask id="mask0_382_91" style="mask-type:alpha" maskUnits="userSpaceOnUse" x="0" y="0" width="202" height="404">
<path d="M201.362 0.772949C174.931 0.772949 148.758 5.97908 124.338 16.0941C99.918 26.2091 77.7296 41.0349 59.0395 59.725C40.3494 78.4151 25.5236 100.604 15.4085 125.023C5.29353 149.443 0.0874015 175.616 0.0874023 202.048C0.0874032 228.48 5.29353 254.653 15.4085 279.073C25.5236 303.492 40.3494 325.681 59.0395 344.371C77.7296 363.061 99.918 377.887 124.338 388.002C148.758 398.117 174.931 403.323 201.362 403.323L201.362 202.048L201.362 0.772949Z" fill="#BBA17F"/>
</mask>
<g mask="url(#mask0_382_91)">
<path d="M186.151 360.624L188.582 361L190.393 352.023C190.611 350.948 191.007 350.034 192.373 350.245C192.784 350.309 193.375 350.438 193.611 350.513L194 348.584C193.592 348.406 192.908 348.262 192.403 348.184C189.803 347.782 188.527 348.847 187.936 351.777L186.151 360.624Z" fill="black"/>
<path d="M174.275 358.449C178.21 359.329 181.279 356.996 182.325 353.359C183.361 349.759 182.077 346.433 178.161 345.558C174.042 344.637 171.105 347.193 170.1 350.684C169.002 354.502 170.581 357.623 174.275 358.449ZM174.928 356.524C172.397 355.958 171.864 353.71 172.586 351.201C173.271 348.819 174.873 346.874 177.514 347.465C179.934 348.006 180.548 350.311 179.816 352.856C179.089 355.384 177.44 357.086 174.928 356.524Z" fill="black"/>
<path d="M164.115 355.641L168.671 343.386L166.308 342.698L161.753 354.953L164.115 355.641Z" fill="black"/>
<path d="M158.721 340.336L156.88 344.342C155.9 346.474 154.867 348.767 154.426 349.951L154.391 349.938C154.356 348.342 153.575 341.281 153.257 338.359L150.499 337.361L145.038 349.241L147.156 350.007L148.95 346.105C149.843 344.162 150.785 342.157 151.259 340.764L151.295 340.777C151.299 342.303 152.098 348.648 152.477 351.933L155.378 352.982L160.839 341.102L158.721 340.336Z" fill="black"/>
<path d="M137.918 331.801L135.525 335.504C134.252 337.475 132.903 339.597 132.299 340.705L132.265 340.688C132.453 339.113 132.656 332.068 132.746 329.153L130.135 327.816L123.039 338.798L125.044 339.825L127.375 336.217C128.535 334.421 129.754 332.57 130.42 331.261L130.453 331.279C130.246 332.78 130.16 339.124 130.081 342.404L132.827 343.81L139.923 332.827L137.918 331.801Z" fill="black"/>
<path d="M114.515 327.508L119.909 330.839L117.936 333.38L112.284 329.89L111.042 331.489L118.723 336.231L126.744 325.905L119.014 321.132L117.531 322.582L123.473 326.251L121.163 329.225L115.768 325.894L114.515 327.508Z" fill="black"/>
<path d="M112.175 316.396C109.691 317.943 105.248 320.726 103.382 322.054L103.367 322.043C104.406 320.331 106.713 315.95 108.144 313.38L106.084 311.838L94.2259 319.195L96.135 320.624C98.1155 319.311 103.027 316.221 105.202 314.537L105.217 314.548C104.082 316.306 101.418 321.289 100.181 323.651L101.984 325.001C104.822 323.131 109.47 320.267 111.31 318.967L111.325 318.978C110.464 320.142 108.672 323.288 105.893 327.926L107.999 329.502L114.22 317.927L112.175 316.396Z" fill="black"/>
<path d="M87.779 300.383C88.7443 300.017 90.1842 299.751 91.5256 301.086C93.4438 302.995 92.1576 305.165 90.3294 306.636C88.4127 308.178 85.9312 308.92 84.1337 307.131C82.8057 305.809 83.0667 304.61 83.7098 303.658L81.966 301.922C80.5119 303.527 80.1872 305.937 82.5615 308.3C85.4992 311.223 89.4275 310.621 92.214 308.378C95.1037 306.053 96.0087 302.814 93.1247 299.944C90.8711 297.702 88.2538 297.538 86.0352 298.648L87.779 300.383Z" fill="black"/>
<path d="M87.1277 294.004L81.4279 287.325L79.5609 288.239L83.8602 293.277L74.7425 299.524L76.3394 301.395L87.1277 294.004Z" fill="black"/>
<path d="M72.5533 280.915L74.7231 278.259L73.2047 276.158L64.6603 286.552L66.4669 289.052L80.409 286.127L79.0014 284.179L75.4461 284.918L72.5533 280.915ZM73.3742 285.491C70.6781 286.101 68.4358 286.6 67.184 286.957L67.1729 286.942C67.9608 286.135 69.1491 284.725 71.1243 282.378L73.3742 285.491Z" fill="black"/>
<path d="M69.3011 276.937C71.1879 275.685 71.8543 273.538 70.1473 270.701C68.411 267.815 66.0423 267.059 63.9824 268.059C62.3652 268.845 61.4884 270.13 62.6221 273.77C63.2843 275.858 63.2317 276.575 62.3294 277.013C61.3931 277.468 60.4825 277.051 59.8192 275.949C58.9022 274.425 59.4462 273.574 60.1926 273.022L58.9148 270.898C57.3342 271.855 56.3853 273.824 58.1118 276.694C59.6726 279.289 61.9074 280.005 63.8651 279.054C65.4823 278.268 66.0841 276.928 65.0433 273.662C64.3347 271.387 64.4967 270.596 65.5351 270.092C66.4885 269.629 67.4963 269.914 68.3742 271.374C69.2228 272.784 69.1172 273.925 68.0233 274.813L69.3011 276.937Z" fill="black"/>
<path d="M62.9966 266.219C64.9714 265.104 65.807 263.002 64.3419 260.033C62.8516 257.012 60.5609 256.08 58.4345 256.93C56.7651 257.598 55.7904 258.82 56.6213 262.551C57.1096 264.693 56.9993 265.407 56.0679 265.78C55.1014 266.166 54.2309 265.681 53.6616 264.527C52.8746 262.932 53.4837 262.12 54.2695 261.623L53.1727 259.4C51.5259 260.241 50.4241 262.145 51.906 265.148C53.2455 267.863 55.4065 268.746 57.4275 267.938C59.0969 267.27 59.803 265.972 59.034 262.623C58.5147 260.291 58.7397 259.51 59.8116 259.081C60.7957 258.688 61.7733 259.049 62.5268 260.576C63.2552 262.052 63.0579 263.187 61.8998 263.996L62.9966 266.219Z" fill="black"/>
<path d="M43.7401 244.672C45.0002 248.5 48.5729 249.924 52.228 248.94C55.8465 247.965 58.0413 245.143 56.7872 241.333C55.468 237.325 51.7717 236.13 48.2628 237.075C44.4249 238.109 42.5569 241.077 43.7401 244.672ZM45.7252 244.235C44.9147 241.772 46.57 240.153 49.092 239.473C51.4861 238.828 53.9744 239.195 54.8204 241.765C55.5954 244.12 53.9331 245.839 51.3745 246.528C48.8342 247.213 46.5297 246.679 45.7252 244.235Z" fill="black"/>
<path d="M54.2504 233.32L53.708 230.979L48.3545 232.005L46.9836 226.088L44.9946 226.47L46.3656 232.387L42.8524 233.06L41.3918 226.756L39.4028 227.138L41.4058 235.783L54.2504 233.32Z" fill="black"/>
<path d="M46.9664 208.587L50.1768 207.116L49.9409 204.535L37.3324 210.267L37.6131 213.338L51.0602 216.782L50.8415 214.389L47.4158 213.505L46.9664 208.587ZM45.3471 213.119C42.7242 212.494 40.5474 211.965 39.2917 211.743L39.29 211.724C40.3756 211.334 42.1112 210.569 44.9975 209.295L45.3471 213.119Z" fill="black"/>
<path d="M50.0785 202.954L50.0796 197.316C50.0801 194.629 48.5096 192.842 46.2005 192.857C44.4024 192.869 43.4748 194.105 43.1718 194.997C42.7745 194.091 41.8094 193.284 40.3141 193.294C38.5918 193.305 37.0017 194.546 37.0011 197.573L37 203.041L50.0785 202.954ZM42.2622 200.603L38.931 200.625L38.9316 197.73C38.9318 196.482 39.5377 195.721 40.5597 195.714C41.6007 195.707 42.263 196.327 42.2627 197.86L42.2622 200.603ZM44.1927 200.59L44.1932 197.922C44.1936 196.144 44.9508 195.382 46.1432 195.374C47.4681 195.365 48.1682 196.212 48.1679 197.783L48.1673 200.564L44.1927 200.59Z" fill="black"/>
<path d="M46.5462 191.133C48.8397 190.979 50.6673 189.448 50.962 186.15C51.2618 182.795 49.7719 180.974 47.4864 180.826C45.6921 180.71 44.2065 181.391 42.963 185.102C42.2593 187.236 41.7882 187.831 40.7871 187.766C39.7483 187.699 39.2507 186.89 39.3653 185.608C39.5236 183.837 40.4774 183.368 41.418 183.258L41.6387 180.789C39.7725 180.839 37.8191 182.078 37.521 185.413C37.2515 188.428 38.6554 190.149 40.8275 190.29C42.6219 190.406 43.9149 189.542 45.0114 186.201C45.7886 183.882 46.3936 183.277 47.5457 183.351C48.6035 183.42 49.2589 184.163 49.1073 185.859C48.9607 187.499 48.1932 188.435 46.7669 188.665L46.5462 191.133Z" fill="black"/>
<path d="M39.6166 171.202C38.8862 175.165 41.3918 177.847 45.1403 178.374C48.8514 178.896 52.1848 177.189 52.9117 173.244C53.6763 169.095 50.949 166.573 47.3505 166.067C43.4145 165.513 40.3023 167.481 39.6166 171.202ZM41.6049 171.577C42.0746 169.028 44.342 168.202 46.9285 168.566C49.3838 168.911 51.4324 170.211 50.9421 172.872C50.493 175.309 48.1709 176.223 45.547 175.854C42.9417 175.488 41.1386 174.108 41.6049 171.577Z" fill="black"/>
<path d="M54.6291 165.066L56.9905 156.61L55.0928 155.889L53.3115 162.267L42.5093 159.925L41.8476 162.294L54.6291 165.066Z" fill="black"/>
<path d="M45.375 150.666L52.8376 152.861C56.923 154.063 58.9748 152.09 59.986 149.398C60.9906 146.723 60.7497 144.036 56.5372 142.797L49.1472 140.623L48.2823 142.925L55.7813 145.132C58.2869 145.869 58.7412 147.183 58.1291 148.812C57.6035 150.211 56.3535 151.339 53.7388 150.569L46.2399 148.363L45.375 150.666Z" fill="black"/>
<path d="M64.1765 139.485L65.2356 137.265L54.8892 133.376L56.6327 129.722L54.7371 129.009L50.1826 138.556L52.0783 139.268L53.83 135.596L64.1765 139.485Z" fill="black"/>
<path d="M65.5537 120.814L62.3741 126.297L59.4495 124.956L62.781 119.211L60.9402 118.367L56.4128 126.175L68.3004 131.626L72.8564 123.769L71.158 122.679L67.6556 128.719L64.2321 127.149L67.4117 121.666L65.5537 120.814Z" fill="black"/>
<path d="M77.4998 104.434L73.6479 109.469L70.8988 107.797L74.9347 102.522L73.2044 101.47L67.7197 108.639L78.8938 115.433L84.413 108.219L82.8552 106.942L78.6123 112.487L75.3943 110.531L79.2462 105.496L77.4998 104.434Z" fill="black"/>
<path d="M93.3176 98.4858L84.8059 97.8263L82.5593 91.0124L80.801 92.9687L82.5664 97.8418L82.5537 97.8558L76.8921 97.3174L74.9946 99.4285L83.1056 100.055L85.5379 107.141L87.3089 105.171L85.4166 100.045L85.4292 100.031L91.4201 100.597L93.3176 98.4858Z" fill="black"/>
<path d="M98.4236 88.5252C98.9122 89.3572 99.3279 90.6201 97.9522 91.9195C95.9848 93.7776 93.4598 92.7996 91.668 91.2842C89.7896 89.6956 88.7566 87.5412 90.6002 85.8C91.9622 84.5136 93.321 84.653 94.4356 85.1523L96.2241 83.4631C94.3148 82.2917 91.602 82.1894 89.1669 84.4893C86.154 87.335 87.152 90.7898 89.883 93.0995C92.7151 95.4948 96.4 96.0498 99.3579 93.2561C101.669 91.0732 101.633 88.7274 100.212 86.836L98.4236 88.5252Z" fill="black"/>
<path d="M106.984 76.5676L102.041 80.537L99.7633 78.2653L104.943 74.1064L103.509 72.6765L96.4702 78.3284L105.729 87.5622L112.812 81.8747L111.6 80.2672L106.155 84.6394L103.488 81.9802L108.432 78.0108L106.984 76.5676Z" fill="black"/>
<path d="M115.858 79.9096L123.088 74.9259L122.018 73.2179L116.565 76.9772L109.365 68.5932L107.339 69.9895L115.858 79.9096Z" fill="black"/>
<path d="M126.016 73.327L133.577 68.8609L132.639 67.0747L126.936 70.4435L120.397 61.5349L118.279 62.7862L126.016 73.327Z" fill="black"/>
<path d="M140.351 56.8669L134.677 59.6965L132.986 56.96L138.931 53.9953L137.867 52.2729L129.788 56.3019L136.661 67.4249L144.79 63.3706L143.98 61.5216L137.731 64.6383L135.751 61.435L141.425 58.6054L140.351 56.8669Z" fill="black"/>
<path d="M150.439 61.1118L148.467 57.1687C147.417 55.0703 146.274 52.8267 145.619 51.7284L145.654 51.7142C146.972 52.788 153.236 57.1288 155.824 58.9292L158.543 57.8273L152.694 46.1336L150.607 46.9796L152.528 50.8211C153.484 52.7334 154.457 54.7205 155.258 55.9836L155.223 55.9978C153.983 54.9534 148.287 51.1152 145.362 49.1053L142.503 50.2641L148.352 61.9578L150.439 61.1118Z" fill="black"/>
<path d="M169.039 50.4782C169.073 51.4573 168.841 52.7972 167.035 53.3651C164.453 54.1772 162.719 52.1494 161.874 49.9605C160.989 47.6658 161.103 45.2346 163.522 44.4736C165.31 43.9114 166.425 44.6494 167.159 45.6063L169.506 44.868C168.397 42.9402 166.089 41.6275 162.893 42.6327C158.939 43.8764 158.183 47.4792 159.471 50.8155C160.806 54.2752 163.747 56.4383 167.629 55.2173C170.662 54.2632 171.732 52.1054 171.386 49.7399L169.039 50.4782Z" fill="black"/>
<path d="M182.683 43.1084L176.511 44.5586L175.627 41.466L182.094 39.9465L181.537 38L172.749 40.065L176.343 52.6354L185.187 50.5575L184.907 48.546L178.108 50.1434L177.073 46.5233L183.245 45.0731L182.683 43.1084Z" fill="black"/>
</g>
<defs>
<filter id="filter0_b_382_91" x="11.211" y="11.8962" width="378.439" height="378.439" filterUnits="userSpaceOnUse" color-interpolation-filters="sRGB">
<feFlood flood-opacity="0" result="BackgroundImageFix"/>
<feGaussianBlur in="BackgroundImageFix" stdDeviation="8.41568"/>
<feComposite in2="SourceAlpha" operator="in" result="effect1_backgroundBlur_382_91"/>
<feBlend mode="normal" in="SourceGraphic" in2="effect1_backgroundBlur_382_91" result="shape"/>
</filter>
</defs>
</svg>
