<svg width="14" height="14" viewBox="0 0 14 14" fill="none" xmlns="http://www.w3.org/2000/svg">
<g clip-path="url(#clip0_104_976)">
<path fill-rule="evenodd" clip-rule="evenodd" d="M5.42765 11.3545C6.00274 11.3545 6.47018 11.8275 6.47018 12.4095C6.47018 12.9914 6.00274 13.4631 5.42765 13.4631C4.85255 13.4631 4.38647 12.9914 4.38647 12.4095C4.38647 11.8275 4.85255 11.3545 5.42765 11.3545Z" fill="black"/>
<path fill-rule="evenodd" clip-rule="evenodd" d="M10.8976 11.3545C11.4727 11.3545 11.9402 11.8275 11.9402 12.4095C11.9402 12.9914 11.4727 13.4631 10.8976 13.4631C10.3225 13.4631 9.8551 12.9914 9.8551 12.4095C9.8551 11.8275 10.3225 11.3545 10.8976 11.3545Z" fill="black"/>
<path d="M1.74719 2.2168L2.90295 2.41922L4.27153 8.87041C4.31487 9.39615 4.74884 9.79988 5.27005 9.79988H10.4999C10.9977 9.79988 11.42 9.42989 11.4917 8.93057L12.7214 4.60647C12.7865 4.15158 12.4381 3.74448 11.9841 3.74448L3.92203 4.38106" stroke="black" stroke-width="1.25022" stroke-linecap="round" stroke-linejoin="round"/>
</g>
<defs>
<clipPath id="clip0_104_976">
<rect width="13.3357" height="13.495" fill="white" transform="translate(0.219604 0.389648)"/>
</clipPath>
</defs>
</svg>
