<svg width="66" height="66" viewBox="0 0 66 66" fill="none" xmlns="http://www.w3.org/2000/svg">
<g filter="url(#filter0_d_104_1009)">
<mask id="path-1-inside-1_104_1009" fill="white">
<path d="M26.0799 29.8019C25.4344 29.8019 24.9027 30.3277 24.9929 30.9669C25.1673 32.2019 25.6174 33.3872 26.3158 34.4325C27.2316 35.8031 28.5334 36.8714 30.0564 37.5023C31.5793 38.1331 33.2552 38.2982 34.872 37.9766C36.4888 37.655 37.9739 36.8612 39.1396 35.6955C40.3052 34.5299 41.099 33.0447 41.4206 31.4279C41.7422 29.8111 41.5772 28.1353 40.9463 26.6123C40.3155 25.0893 39.2472 23.7876 37.8765 22.8717C36.8313 22.1733 35.6459 21.7232 34.411 21.5489C33.7718 21.4587 33.246 21.9904 33.246 22.6359C33.246 23.2814 33.7741 23.7932 34.4074 23.9182C35.1792 24.0706 35.9174 24.3741 36.5778 24.8154C37.5641 25.4744 38.3327 26.411 38.7867 27.5069C39.2406 28.6027 39.3593 29.8085 39.1279 30.9719C38.8965 32.1352 38.3254 33.2038 37.4866 34.0426C36.6479 34.8813 35.5793 35.4525 34.416 35.6839C33.2526 35.9153 32.0468 35.7965 30.9509 35.3426C29.8551 34.8887 28.9184 34.12 28.2595 33.1338C27.8182 32.4733 27.5146 31.7352 27.3623 30.9633C27.2373 30.33 26.7254 29.8019 26.0799 29.8019Z"/>
</mask>
<path d="M26.0799 29.8019C25.4344 29.8019 24.9027 30.3277 24.9929 30.9669C25.1673 32.2019 25.6174 33.3872 26.3158 34.4325C27.2316 35.8031 28.5334 36.8714 30.0564 37.5023C31.5793 38.1331 33.2552 38.2982 34.872 37.9766C36.4888 37.655 37.9739 36.8612 39.1396 35.6955C40.3052 34.5299 41.099 33.0447 41.4206 31.4279C41.7422 29.8111 41.5772 28.1353 40.9463 26.6123C40.3155 25.0893 39.2472 23.7876 37.8765 22.8717C36.8313 22.1733 35.6459 21.7232 34.411 21.5489C33.7718 21.4587 33.246 21.9904 33.246 22.6359C33.246 23.2814 33.7741 23.7932 34.4074 23.9182C35.1792 24.0706 35.9174 24.3741 36.5778 24.8154C37.5641 25.4744 38.3327 26.411 38.7867 27.5069C39.2406 28.6027 39.3593 29.8085 39.1279 30.9719C38.8965 32.1352 38.3254 33.2038 37.4866 34.0426C36.6479 34.8813 35.5793 35.4525 34.416 35.6839C33.2526 35.9153 32.0468 35.7965 30.9509 35.3426C29.8551 34.8887 28.9184 34.12 28.2595 33.1338C27.8182 32.4733 27.5146 31.7352 27.3623 30.9633C27.2373 30.33 26.7254 29.8019 26.0799 29.8019Z" stroke="white" stroke-width="5.0009" shape-rendering="crispEdges" mask="url(#path-1-inside-1_104_1009)"/>
</g>
<g filter="url(#filter1_d_104_1009)">
<ellipse cx="33.2461" cy="29.8018" rx="1.66697" ry="1.66697" transform="rotate(-90 33.2461 29.8018)" fill="white"/>
</g>
<defs>
<filter id="filter0_d_104_1009" x="0.811914" y="0.701997" width="64.9399" height="64.9396" filterUnits="userSpaceOnUse" color-interpolation-filters="sRGB">
<feFlood flood-opacity="0" result="BackgroundImageFix"/>
<feColorMatrix in="SourceAlpha" type="matrix" values="0 0 0 0 0 0 0 0 0 0 0 0 0 0 0 0 0 0 127 0" result="hardAlpha"/>
<feOffset dy="3.33393"/>
<feGaussianBlur stdDeviation="12.0855"/>
<feComposite in2="hardAlpha" operator="out"/>
<feColorMatrix type="matrix" values="0 0 0 0 0 0 0 0 0 0 0 0 0 0 0 0 0 0 0.55 0"/>
<feBlend mode="normal" in2="BackgroundImageFix" result="effect1_dropShadow_104_1009"/>
<feBlend mode="normal" in="SourceGraphic" in2="effect1_dropShadow_104_1009" result="shape"/>
</filter>
<filter id="filter1_d_104_1009" x="7.40811" y="7.2977" width="51.676" height="51.676" filterUnits="userSpaceOnUse" color-interpolation-filters="sRGB">
<feFlood flood-opacity="0" result="BackgroundImageFix"/>
<feColorMatrix in="SourceAlpha" type="matrix" values="0 0 0 0 0 0 0 0 0 0 0 0 0 0 0 0 0 0 127 0" result="hardAlpha"/>
<feOffset dy="3.33393"/>
<feGaussianBlur stdDeviation="12.0855"/>
<feComposite in2="hardAlpha" operator="out"/>
<feColorMatrix type="matrix" values="0 0 0 0 0 0 0 0 0 0 0 0 0 0 0 0 0 0 0.55 0"/>
<feBlend mode="normal" in2="BackgroundImageFix" result="effect1_dropShadow_104_1009"/>
<feBlend mode="normal" in="SourceGraphic" in2="effect1_dropShadow_104_1009" result="shape"/>
</filter>
</defs>
</svg>
