<svg width="11" height="11" viewBox="0 0 11 11" fill="none" xmlns="http://www.w3.org/2000/svg">
<path d="M9.92141 0.13623H0.901128C0.592313 0.13623 0.341797 0.386747 0.341797 0.695562V9.71584C0.341797 10.0251 0.592313 10.2752 0.901128 10.2752H5.75684V6.34887H4.43497V4.81915H5.75684V3.68908C5.75684 2.37989 6.55697 1.66763 7.72506 1.66763C8.28481 1.66763 8.76599 1.70861 8.90625 1.7272V3.09596H8.09471C7.46102 3.09596 7.33767 3.40055 7.33767 3.84413V4.82042H8.85175L8.65531 6.35394H7.33767V10.2752H9.92098C10.2306 10.2752 10.4807 10.0251 10.4807 9.71584V0.695562C10.4807 0.386747 10.2306 0.13623 9.92141 0.13623Z" fill="white"/>
</svg>
