<svg width="72" height="72" viewBox="0 0 72 72" fill="none" xmlns="http://www.w3.org/2000/svg">
<circle cx="36" cy="36" r="33" stroke="black" stroke-width="6"/>
<path d="M57.3921 37.5571C57.3921 40.3666 56.8388 43.1485 55.7636 45.744C54.6885 48.3396 53.1127 50.698 51.1261 52.6846C49.1396 54.6711 46.7812 56.247 44.1856 57.3221C41.59 58.3972 38.8081 58.9506 35.9987 58.9506C33.1892 58.9506 30.4073 58.3972 27.8118 57.3221C25.2162 56.247 22.8578 54.6711 20.8712 52.6846C18.8847 50.698 17.3088 48.3396 16.2337 45.744C15.1586 43.1485 14.6052 40.3666 14.6052 37.5571" stroke="black" stroke-width="6"/>
<ellipse cx="26.0814" cy="25.5492" rx="3.60656" ry="9.46721" fill="black"/>
<ellipse cx="44.0331" cy="25.5492" rx="3.60656" ry="9.46721" fill="black"/>
</svg>
