<svg width="11" height="11" viewBox="0 0 11 11" fill="none" xmlns="http://www.w3.org/2000/svg">
<g clip-path="url(#clip0_1_104)">
<path fill-rule="evenodd" clip-rule="evenodd" d="M5.34855 0.13623C3.99018 0.13623 3.82015 0.142482 3.28693 0.166236C2.75434 0.19124 2.39177 0.275005 2.07297 0.398777C1.74416 0.5263 1.46473 0.697581 1.18718 0.975756C0.909007 1.25331 0.737101 1.53211 0.610203 1.86154C0.486431 2.18035 0.402041 2.54291 0.377662 3.07551C0.352657 3.60873 0.347656 3.77876 0.347656 5.13713C0.347656 6.49549 0.353907 6.66552 0.377662 7.19874C0.402666 7.73134 0.486431 8.09453 0.610203 8.41271C0.737726 8.74152 0.909007 9.02095 1.18718 9.2985C1.46473 9.57667 1.74353 9.74858 2.07297 9.87547C2.39177 9.99925 2.75434 10.0836 3.28693 10.108C3.82015 10.133 3.99018 10.138 5.34855 10.138C6.70692 10.138 6.87695 10.1318 7.41017 10.108C7.94277 10.083 8.30596 9.99925 8.62414 9.87547C8.95295 9.74795 9.23237 9.57667 9.50992 9.2985C9.7881 9.02095 9.96 8.74215 10.0869 8.41271C10.2107 8.0939 10.2951 7.73134 10.3194 7.19874C10.3444 6.66552 10.3494 6.49549 10.3494 5.13713C10.3494 3.77876 10.3432 3.60873 10.3194 3.07551C10.2944 2.54291 10.2107 2.17972 10.0869 1.86154C9.95938 1.53273 9.7881 1.25331 9.50992 0.975756C9.23237 0.697581 8.95357 0.525675 8.62414 0.398777C8.30533 0.275005 7.94277 0.190615 7.41017 0.166236C6.87695 0.141231 6.70692 0.13623 5.34855 0.13623ZM5.34855 1.03639C6.68379 1.03639 6.84257 1.04264 7.36954 1.0664C7.85713 1.0889 8.12155 1.17017 8.29783 1.23893C8.53162 1.32957 8.6979 1.43771 8.87293 1.61274C9.04796 1.78778 9.15611 1.95406 9.24675 2.18785C9.31551 2.36413 9.39678 2.62855 9.41928 3.11614C9.44303 3.64373 9.44866 3.80189 9.44866 5.13713C9.44866 6.47236 9.44241 6.63114 9.41865 7.15811C9.39615 7.6457 9.31489 7.91012 9.24612 8.0864C9.15548 8.3202 9.04734 8.48647 8.87231 8.66151C8.69728 8.83654 8.531 8.94468 8.2972 9.03532C8.12092 9.10409 7.8565 9.18535 7.36891 9.20785C6.84132 9.23161 6.68317 9.23723 5.34793 9.23723C4.01269 9.23723 3.85391 9.23098 3.32694 9.20723C2.83935 9.18472 2.57493 9.10346 2.39865 9.0347C2.16486 8.94406 1.99858 8.83591 1.82355 8.66088C1.64851 8.48585 1.54037 8.31957 1.44973 8.08578C1.38097 7.9095 1.2997 7.64507 1.2772 7.15749C1.25407 6.63114 1.24782 6.47236 1.24782 5.13713C1.24782 3.80189 1.25407 3.64311 1.27782 3.11614C1.30033 2.62855 1.38159 2.36413 1.45035 2.18785C1.54099 1.95406 1.64914 1.78778 1.82417 1.61274C1.9992 1.43771 2.16548 1.32957 2.39927 1.23893C2.57556 1.17017 2.83998 1.0889 3.32756 1.0664C3.85453 1.04264 4.01331 1.03639 5.34855 1.03639ZM5.34855 2.56917C3.92955 2.56917 2.78059 3.71937 2.78059 5.13713C2.78059 6.55613 3.9308 7.70508 5.34855 7.70508C6.76756 7.70508 7.91651 6.55488 7.91651 5.13713C7.91651 3.71812 6.7663 2.56917 5.34855 2.56917ZM5.34855 6.8043C4.42776 6.8043 3.68138 6.05792 3.68138 5.13713C3.68138 4.21634 4.42776 3.46995 5.34855 3.46995C6.26934 3.46995 7.01572 4.21634 7.01572 5.13713C7.01572 6.05792 6.26934 6.8043 5.34855 6.8043ZM8.61789 2.4679C8.61789 2.79921 8.34909 3.06801 8.01778 3.06801C7.68647 3.06801 7.41767 2.79921 7.41767 2.4679C7.41767 2.13659 7.68647 1.86779 8.01778 1.86779C8.34909 1.86779 8.61789 2.13659 8.61789 2.4679Z" fill="white"/>
</g>
<defs>
<clipPath id="clip0_1_104">
<rect width="10.0018" height="10.0018" fill="white" transform="translate(0.347656 0.13623)"/>
</clipPath>
</defs>
</svg>
