<svg width="29" height="29" viewBox="0 0 29 29" fill="none" xmlns="http://www.w3.org/2000/svg">
<path d="M14.7125 25.8505C19.4456 25.8505 23.3078 21.9883 23.3078 17.2552V11.525C23.3078 6.79184 19.4456 2.92969 14.7125 2.92969C9.97934 2.92969 6.11719 6.79184 6.11719 11.525V17.2552C6.11719 21.9883 9.97934 25.8505 14.7125 25.8505Z" stroke="#292D32" stroke-width="1.71906" stroke-linecap="round" stroke-linejoin="round"/>
<path d="M14.7112 13.2439C13.76 13.2439 12.9922 12.476 12.9922 11.5248V9.23273C12.9922 8.28152 13.76 7.51367 14.7112 7.51367C15.651 7.51367 16.4303 8.28152 16.4303 9.23273V11.5248C16.4303 12.476 15.651 13.2439 14.7112 13.2439Z" stroke="#292D32" stroke-width="1.71906" stroke-linecap="round" stroke-linejoin="round"/>
<path d="M14.7109 7.51384V2.92969" stroke="#292D32" stroke-width="1.71906" stroke-linecap="round" stroke-linejoin="round"/>
</svg>
