<svg width="18" height="17" viewBox="0 0 18 17" fill="none" xmlns="http://www.w3.org/2000/svg">
<mask id="path-1-inside-1_1_589" fill="white">
<path d="M0.982372 8.50571C0.630749 8.50571 0.343172 8.79118 0.370008 9.14178C0.479015 10.5659 0.95268 11.9421 1.75018 13.1356C2.66589 14.5061 3.96743 15.5742 5.4902 16.205C7.01298 16.8357 8.68859 17.0008 10.3052 16.6792C11.9217 16.3577 13.4066 15.564 14.5721 14.3985C15.7376 13.233 16.5313 11.7481 16.8529 10.1315C17.1744 8.51495 17.0094 6.83933 16.3786 5.31656C15.7479 3.79378 14.6797 2.49225 13.3093 1.57653C12.1157 0.779039 10.7396 0.305374 9.31542 0.196366C8.96482 0.169531 8.67935 0.457108 8.67935 0.808731V0.808731C8.67935 1.16035 8.96498 1.44242 9.31517 1.47408C10.4872 1.58006 11.6178 1.97775 12.6018 2.63528C13.7629 3.41107 14.6678 4.51374 15.2022 5.80385C15.7366 7.09395 15.8764 8.51354 15.604 9.88311C15.3316 11.2527 14.6591 12.5107 13.6717 13.4981C12.6843 14.4855 11.4263 15.1579 10.0567 15.4304C8.68718 15.7028 7.26759 15.563 5.97749 15.0286C4.68738 14.4942 3.58471 13.5893 2.80892 12.4282C2.15139 11.4441 1.7537 10.3136 1.64772 9.14153C1.61606 8.79134 1.33399 8.50571 0.982372 8.50571V8.50571Z"/>
</mask>
<path d="M0.982372 8.50571C0.630749 8.50571 0.343172 8.79118 0.370008 9.14178C0.479015 10.5659 0.95268 11.9421 1.75018 13.1356C2.66589 14.5061 3.96743 15.5742 5.4902 16.205C7.01298 16.8357 8.68859 17.0008 10.3052 16.6792C11.9217 16.3577 13.4066 15.564 14.5721 14.3985C15.7376 13.233 16.5313 11.7481 16.8529 10.1315C17.1744 8.51495 17.0094 6.83933 16.3786 5.31656C15.7479 3.79378 14.6797 2.49225 13.3093 1.57653C12.1157 0.779039 10.7396 0.305374 9.31542 0.196366C8.96482 0.169531 8.67935 0.457108 8.67935 0.808731V0.808731C8.67935 1.16035 8.96498 1.44242 9.31517 1.47408C10.4872 1.58006 11.6178 1.97775 12.6018 2.63528C13.7629 3.41107 14.6678 4.51374 15.2022 5.80385C15.7366 7.09395 15.8764 8.51354 15.604 9.88311C15.3316 11.2527 14.6591 12.5107 13.6717 13.4981C12.6843 14.4855 11.4263 15.1579 10.0567 15.4304C8.68718 15.7028 7.26759 15.563 5.97749 15.0286C4.68738 14.4942 3.58471 13.5893 2.80892 12.4282C2.15139 11.4441 1.7537 10.3136 1.64772 9.14153C1.61606 8.79134 1.33399 8.50571 0.982372 8.50571V8.50571Z" stroke="black" stroke-width="5.00019" mask="url(#path-1-inside-1_1_589)"/>
<ellipse cx="8.67845" cy="8.50515" rx="1.66673" ry="1.66673" transform="rotate(-90 8.67845 8.50515)" fill="black"/>
</svg>
