<svg width="97" height="97" viewBox="0 0 97 97" fill="none" xmlns="http://www.w3.org/2000/svg">
<circle cx="48.5" cy="48.5" r="43.5" stroke="black" stroke-width="10"/>
<path d="M75.9548 50.499C75.9548 54.1045 75.2446 57.6746 73.8649 61.0056C72.4851 64.3366 70.4628 67.3632 67.9134 69.9126C65.364 72.462 62.3374 74.4843 59.0064 75.8641C55.6754 77.2438 52.1053 77.9539 48.4998 77.9539C44.8944 77.9539 41.3243 77.2438 37.9933 75.8641C34.6623 74.4843 31.6357 72.462 29.0863 69.9126C26.5369 67.3632 24.5145 64.3365 23.1348 61.0056C21.7551 57.6746 21.0449 54.1045 21.0449 50.499" stroke="black" stroke-width="10"/>
<ellipse cx="35.7729" cy="35.0881" rx="4.62842" ry="12.1496" fill="black"/>
<ellipse cx="58.8081" cy="35.0881" rx="4.62842" ry="12.1496" fill="black"/>
</svg>
