<svg width="16" height="16" viewBox="0 0 16 16" fill="none" xmlns="http://www.w3.org/2000/svg">
<path d="M9.38945 1.20246L10.7995 4.02246C10.9895 4.41246 11.4995 4.78246 11.9295 4.86246L14.4795 5.28246C16.1095 5.55246 16.4895 6.73246 15.3195 7.91246L13.3295 9.90246C12.9995 10.2325 12.8095 10.8825 12.9195 11.3525L13.4895 13.8125C13.9395 15.7525 12.8995 16.5125 11.1895 15.4925L8.79945 14.0725C8.36945 13.8125 7.64945 13.8125 7.21945 14.0725L4.82945 15.4925C3.11945 16.5025 2.07945 15.7525 2.52945 13.8125L3.09945 11.3525C3.18945 10.8725 2.99945 10.2225 2.66945 9.89246L0.679454 7.90246C-0.490546 6.73246 -0.110546 5.55246 1.51945 5.27246L4.06945 4.85246C4.49945 4.78246 5.00945 4.40246 5.19945 4.01246L6.60945 1.19246C7.37945 -0.327536 8.61945 -0.327536 9.38945 1.20246Z" fill="#E1E1E1"/>
</svg>
