<svg width="11" height="11" viewBox="0 0 11 11" fill="none" xmlns="http://www.w3.org/2000/svg">
<g clip-path="url(#clip0_1_112)">
<path d="M10.3166 2.03987C9.94779 2.20198 9.55397 2.31242 9.13931 2.36284C9.56189 2.10821 9.88695 1.70689 10.0407 1.22806C9.6444 1.45935 9.20516 1.62771 8.73757 1.72148C8.36417 1.32182 7.83199 1.07178 7.24105 1.07178C6.10877 1.07178 5.19069 1.98986 5.19069 3.12089C5.19069 3.28342 5.20944 3.4397 5.24361 3.58931C3.53914 3.50888 2.02845 2.6904 1.01744 1.4531C0.839492 1.75398 0.73989 2.10363 0.73989 2.48453C0.73989 3.19716 1.10246 3.82352 1.65172 4.1915C1.31541 4.18067 0.999103 4.08815 0.723221 3.93479V3.96021C0.723221 4.95414 1.42876 5.78304 2.36768 5.97182C2.19557 6.01808 2.01387 6.04308 1.82759 6.04308C1.69673 6.04308 1.57129 6.03058 1.44585 6.00724C1.70881 6.82114 2.46478 7.41458 3.36453 7.43125C2.6644 7.98093 1.77716 8.30849 0.821572 8.30849C0.659043 8.30849 0.49693 8.29891 0.333984 8.28057C1.24623 8.86151 2.32101 9.20115 3.4833 9.20115C7.25647 9.20115 9.31726 6.07726 9.31726 3.37261C9.31726 3.28551 9.31726 3.19757 9.31101 3.11006C9.7115 2.82292 10.0611 2.45994 10.3362 2.0482L10.3166 2.03987Z" fill="white"/>
</g>
<defs>
<clipPath id="clip0_1_112">
<rect width="10.0018" height="10.0018" fill="white" transform="translate(0.333984 0.13623)"/>
</clipPath>
</defs>
</svg>
