<svg width="87" height="77" viewBox="0 0 87 77" fill="none" xmlns="http://www.w3.org/2000/svg">
<path fill-rule="evenodd" clip-rule="evenodd" d="M76.2482 4.10408C75.791 2.22454 77.0315 0.353864 78.9408 0.0435366C80.7855 -0.256304 82.514 1.02542 82.7629 2.87774L86.0912 27.6537C86.2259 28.656 85.593 29.6017 84.615 29.8594C83.5299 30.1453 82.4214 29.4849 82.1562 28.3945L76.2482 4.10408ZM38.7027 25.5431C37.651 27.2545 38.1857 29.4945 39.8971 30.5462L66.559 46.9317C67.4997 47.5099 68.7309 47.2194 69.3139 46.2816C69.8585 45.4056 69.6502 44.2594 68.8323 43.6309L44.0175 24.5635C42.3061 23.2485 39.8328 23.7044 38.7027 25.5431ZM0 73.0209C0 70.9687 1.66362 69.305 3.71581 69.305H59.0491C60.1292 69.305 61.0074 70.1758 61.0166 71.2559C61.0255 72.3008 60.2161 73.1704 59.1733 73.2363L3.95037 76.7292C1.81019 76.8646 0 75.1653 0 73.0209Z" fill="#F2B95A"/>
</svg>
