<svg width="8" height="11" viewBox="0 0 8 11" fill="none" xmlns="http://www.w3.org/2000/svg">
<path d="M1.00531 1.52832L1.32571 1.09483C1.16207 0.973876 0.944251 0.955387 0.762557 1.04703C0.580863 1.13867 0.466264 1.32482 0.466264 1.52832H1.00531ZM1.00531 10.1531H0.466264C0.466264 10.3565 0.580863 10.5427 0.762557 10.6343C0.944251 10.726 1.16207 10.7075 1.32571 10.5865L1.00531 10.1531ZM6.83969 5.84069L7.16009 6.27417C7.2976 6.17254 7.37873 6.01168 7.37873 5.84069C7.37873 5.66969 7.2976 5.50884 7.16009 5.4072L6.83969 5.84069ZM0.466264 1.52832V10.1531H1.54436V1.52832H0.466264ZM1.32571 10.5865L7.16009 6.27417L6.51928 5.4072L0.684906 9.71956L1.32571 10.5865ZM7.16009 5.4072L1.32571 1.09483L0.684906 1.96181L6.51928 6.27417L7.16009 5.4072Z" fill="white"/>
</svg>
